<?xml version="1.0" encoding="UTF-8"?>
<svg id="Layer_1" data-name="Layer 1" xmlns="http://www.w3.org/2000/svg" xmlns:xlink="http://www.w3.org/1999/xlink" viewBox="0 0 1788.74 512">
  <defs>
    <linearGradient id="linear-gradient" x1="630.04" y1="256" x2="1706.39" y2="256" gradientUnits="userSpaceOnUse">
      <stop offset="0" stop-color="#14213d"/>
      <stop offset="1" stop-color="#000714"/>
    </linearGradient>
  </defs>
  <rect x="-.26" width="80" height="512" style="fill: none;"/>
  <rect x="1706.74" width="82" height="512" style="fill: none;"/>
  <rect x="529.29" y=".33" width="100" height="512" style="fill: none;"/>
  <g>
    <path d="M526.8,303.99l-55.55,171.01c-4.07,12.52-15.73,21-28.89,21h-179.77c-13.15,0-24.82-8.47-28.89-21l-55.55-171.01c-4.07-12.52.39-26.24,11.04-33.97l145.44-105.7c10.65-7.73,25.06-7.73,35.71,0l145.44,105.7c10.65,7.73,15.1,21.44,11.04,33.97Z" style="fill: #000714; fill-rule: evenodd;"/>
    <path d="M430.42,161.47l-55.55,171.01c-4.07,12.52-15.73,21-28.89,21h-179.77c-13.15,0-24.82-8.47-28.89-21l-55.55-171.01c-4.07-12.52.39-26.24,11.04-33.97L238.25,21.8c10.65-7.73,25.06-7.73,35.71,0l145.44,105.7c10.65,7.73,15.1,21.44,11.04,33.97Z" style="fill: #14213d; fill-rule: evenodd;"/>
    <path d="M366.5,257.49c-20.33,35.67-58.72,59.75-102.69,59.75s-83.43-24.76-103.54-61.27c-9.29-16.88-14.58-36.26-14.58-56.88,0-65.21,52.92-118.15,118.12-118.15,43.22,0,81.05,23.28,101.65,57.96l-51.32,29.28c-10.4-16.9-29.06-28.16-50.33-28.16-32.6,0-59.06,26.47-59.06,59.08,0,9.97,2.47,19.36,6.83,27.6,9.91,18.71,29.6,31.48,52.22,31.48s40.65-11.71,50.93-29.16l51.76,28.48Z" style="fill: #fff; fill-rule: evenodd; opacity: .8;"/>
    <rect x="281.19" y="401.95" width="142.57" height="38.47" rx="12" ry="12" style="fill: #fff; opacity: .8;"/>
  </g>
  <path d="M830.01,334.58c0,1.77-1.16,4.09-3.48,6.97-20.36,24.23-47.41,36.34-81.15,36.34s-62.51-11.78-83.97-35.35c-20.91-22.79-31.36-51.55-31.36-86.29s10.23-62.17,30.7-85.63c21.35-24.56,48.51-36.84,81.48-36.84,35.85,0,63.95,11.01,84.3,33.02,2.21,2.44,3.32,4.59,3.32,6.47,0,2.1-3.85,9.9-11.53,23.4-7.69,13.5-12.53,21.08-14.52,22.74-.89.89-1.99,1.33-3.32,1.33-.55,0-3.32-2.21-8.3-6.64-5.97-5.31-11.84-9.46-17.59-12.45-8.74-4.42-17.81-6.64-27.22-6.64-16.26,0-29.26,6.09-39,18.25-8.96,11.28-13.44,25.22-13.44,41.82s4.48,30.92,13.44,42.32c9.73,12.39,22.74,18.59,39,18.59,9.63,0,18.75-2.1,27.38-6.31,5.64-2.76,11.39-6.64,17.26-11.62,4.87-4.2,7.58-6.31,8.13-6.31,1.1,0,2.21.61,3.32,1.83,1.77,1.99,6.58,8.91,14.44,20.74,8.07,12.28,12.11,19.03,12.11,20.25ZM1095.37,366.94c0,3.43-1.61,5.14-4.81,5.14h-58.75c-3.21,0-4.81-1.93-4.81-5.81,0-11.17.41-27.93,1.24-50.28.83-22.35,1.24-39.11,1.24-50.28,0-3.21-.5-4.92-1.49-5.14-1.22.66-8.63,17.76-22.24,51.28-7.97,19.69-15.93,39.33-23.9,58.91-1.11,2.54-2.49,4.04-4.15,4.48-.55.11-2.77.17-6.64.17-5.75,0-9.18-1.11-10.29-3.32-5.97-12.17-13.83-29.87-23.56-53.1-10.4-24.56-18.2-42.32-23.4-53.27-.22-.55-.72-1.16-1.49-1.83-.78,1-1.16,2.6-1.16,4.81,0,10.84.27,27.11.83,48.79.55,21.69.83,37.95.83,48.79,0,3.87-1.55,5.81-4.65,5.81h-55.43c-2.21,0-3.57-.36-4.07-1.08-.5-.72-.75-1.96-.75-3.73,0-12.06.58-30.17,1.74-54.35,1.16-24.17,1.74-42.29,1.74-54.35,0-12.83-.55-36.89-1.66-72.19-.11-9.18-.61-22.84-1.49-40.99l-.17-2.82c-.11-2.21,2.21-3.32,6.97-3.32,6.08,0,15.21-.19,27.38-.58,12.17-.39,21.3-.58,27.38-.58,1.22,0,2.93,2.32,5.14,6.97l48.46,106.37c3.43,7.19,6.31,10.79,8.63,10.79,1.22,0,3.82-4.15,7.8-12.45,11.17-23.23,27.71-58.25,49.62-105.05,1.88-4.31,3.93-6.47,6.14-6.47,3.21,0,8.05.17,14.52.5,6.47.33,11.37.5,14.69.5,2.76,0,7-.27,12.7-.83,5.7-.55,9.93-.83,12.7-.83,3.32,0,4.98,1.33,4.98,3.98,0,13.06-.47,32.56-1.41,58.5-.94,25.95-1.41,45.44-1.41,58.5,0,12.06.5,30.15,1.49,54.27,1,24.12,1.49,42.15,1.49,54.1ZM1186.47,295.91c0,8.08.17,20.11.5,36.09.33,15.99.5,27.96.5,35.93,0,2.32-1.38,3.71-4.15,4.15-3.76.66-12.23,1-25.39,1s-21.8-.33-25.56-1c-2.43-.44-3.93-1.16-4.48-2.16-.22-.44-.33-2.1-.33-4.98,0-7.63.17-19.11.5-34.43.33-15.32.5-26.85.5-34.6,0-31.42-1.22-56.42-3.65-75.01-.22-1.77-.33-2.93-.33-3.48,0-2.21,1.49-3.32,4.48-3.32s7.83.33,14.19,1c6.36.66,11.14,1,14.35,1s8.02-.27,14.44-.83c6.42-.55,11.23-.83,14.44-.83,2.66,0,3.98,1.11,3.98,3.32,0,.44-.11,1.49-.33,3.15-2.43,21.57-3.65,46.58-3.65,75.01ZM1190.79,172.61c0,19.25-10.84,28.88-32.53,28.88-9.29,0-16.98-2.43-23.07-7.3-6.64-5.31-9.96-12.5-9.96-21.57s3.43-15.71,10.29-21.24c6.31-5.09,13.88-7.63,22.74-7.63s16.1,2.6,22.4,7.8c6.75,5.53,10.12,12.56,10.12,21.08ZM1383.46,367.27c0,2.99-1.55,4.7-4.65,5.14-3.1.44-11.18.66-24.23.66-13.94,0-22.57-.33-25.89-1-3.32-.66-4.98-2.93-4.98-6.8,0-5.2.17-13.05.5-23.56.33-10.51.5-18.42.5-23.73,0-4.09-.11-10.21-.33-18.34-.22-8.13-.33-14.24-.33-18.34,0-15.16-6.58-22.74-19.75-22.74-4.31,0-9.35,1.88-15.1,5.64-6.2,4.21-9.29,8.35-9.29,12.45v89.61c0,3.65-1.72,5.7-5.14,6.14-3.87.44-11.78.66-23.73.66-12.94,0-21.35-.33-25.22-1-3.43-.55-5.14-2.38-5.14-5.48,0-8.63.05-21.63.17-39,.11-17.37.17-30.42.17-39.16,0-27.55-2.16-49.18-6.47-64.89-.22-1-.33-1.83-.33-2.49,0-1.77.83-2.99,2.49-3.65,6.97-.77,16.26-1.99,27.88-3.65,17.59-3.43,27.49-5.14,29.71-5.14,1.22,0,2.16,3.73,2.82,11.2s1.6,11.2,2.82,11.2c-1.22,0,4.73-3.84,17.84-11.53,13.11-7.69,24.59-11.53,34.43-11.53,14.05,0,25.78,3.32,35.18,9.96,10.51,7.63,15.77,18.25,15.77,31.86v52.94c0,7.19.05,17.95.17,32.28.11,14.33.17,25.09.17,32.28ZM1581.93,221.23c0,8.19-.39,20.47-1.16,36.84-.78,16.38-1.16,28.66-1.16,36.84s.27,19.91.83,35.85c.55,15.93.83,27.83.83,35.68,0,2.99-1.38,4.87-4.15,5.64-4.21,1.1-13.11,1.66-26.72,1.66-12.06,0-20.47-.33-25.22-1-2.1-.33-3.43-1.66-3.98-3.98l-1-9.96c-.55-5.09-1.33-7.63-2.32-7.63,1.55,0-4.04,3.76-16.76,11.28-12.72,7.52-24.29,11.28-34.68,11.28-29.32,0-46.69-13.22-52.11-39.66-2.43-12.28-3.65-30.09-3.65-53.44,0-25.22,2.05-45.14,6.14-59.74,1.22-4.53,3.48-6.8,6.8-6.8,5.09,0,12.83.06,23.23.17,10.4.11,18.14.17,23.23.17,3.43,0,5.14,1.44,5.14,4.31,0,.78-.11,1.94-.33,3.48-2.32,15.05-3.48,30.31-3.48,45.8,0,19.25.61,32.42,1.83,39.5,1.99,12.17,9.24,18.25,21.74,18.25,4.87,0,10.15-2.16,15.85-6.47,5.7-4.31,8.66-8.8,8.88-13.44.22-4.09.33-31.86.33-83.31,0-3.65.27-5.81.83-6.47.66-1.1,2.66-1.66,5.97-1.66,5.42,0,13.58.06,24.48.17,10.9.11,19.06.17,24.48.17,3.32,0,5.25.83,5.81,2.49.22.89.33,2.21.33,3.98ZM1706.39,237.83c0,1.11-.83,2.6-2.49,4.48-3.1-.77-6.2-1.16-9.29-1.16-6.53,0-12.01,1.44-16.43,4.31-5.31,3.32-7.97,8.02-7.97,14.11,0,3.87,2.82,8.8,8.46,14.77,8.52,8.96,13.77,14.99,15.77,18.09,5.64,8.41,8.46,17.42,8.46,27.05,0,5.64-1.11,11.62-3.32,17.92-2.55,6.97-5.75,12.06-9.63,15.27-8.19,7.08-17.76,13.06-28.71,17.92-11.84,5.09-22.74,7.63-32.69,7.63-2.21,0-7.16-6-14.85-18.01-7.69-12-11.53-19.33-11.53-21.99,0-1,.61-1.6,1.83-1.83,7.74-1.44,15.54-2.88,23.4-4.31,9.73-3.1,14.6-8.19,14.6-15.27,0-4.87-2.82-10.51-8.46-16.93-10.07-11.17-15.32-17.09-15.77-17.76-5.64-7.97-8.46-16.37-8.46-25.22,0-16.59,8.41-30.7,25.22-42.32,15.04-10.29,31.14-15.43,48.29-15.43,1.77,0,6.14,5.95,13.11,17.84,6.97,11.89,10.45,18.84,10.45,20.83Z" style="fill: url(#linear-gradient);"/>
</svg>